<svg baseProfile="tiny" xmlns="http://www.w3.org/2000/svg" viewBox="-274 48 251 505"><path fill="#FFF" d="M-56.2 552h-185.6c-17.8 0-32.2-14.4-32.2-32.2V80.2c0-17.8 14.4-32.2 32.2-32.2h185.6C-38.4 48-24 62.4-24 80.2v439.6c0 17.8-14.4 32.2-32.2 32.2z"/><path fill="#EDEDED" d="M-55.8 48h-186c-17.8 0-32.3 14.4-32.3 32.2v439.6c0 17.8 14.4 32.2 32.3 32.2h186c17.8 0 32.3-14.4 32.3-32.2V80.2c0-17.8-14.4-32.2-32.3-32.2zM-28 515.4c0 17.4-12.8 31.6-29.8 31.6h-181.9c-17 0-29.8-14.1-29.8-31.6V84.6c0-17.4 9.8-32.6 29.8-32.6h181.9C-37.2 52-28 67.1-28 84.6v430.8z"/><ellipse fill="#FFF" stroke="#DDD" stroke-width="1.182" cx="-149" cy="524.2" rx="13" ry="13"/><path fill="#EDEDED" d="M-135.9 72.7h-27.6c-1.2 0-2.3-1-2.3-2.3 0-1.2 1-2.3 2.3-2.3h27.6c1.2 0 2.3 1 2.3 2.3 0 1.3-1 2.3-2.3 2.3z"/></svg>